<svg width="176" height="147" viewBox="0 0 176 147" fill="none" xmlns="http://www.w3.org/2000/svg">
<g clip-path="url(#clip0_1_8)">
<path d="M82.8386 24.7826C81.5756 24.1409 80.0518 24.638 79.4101 25.901C78.7684 27.164 79.2655 28.6877 80.5285 29.3294C81.7915 29.9711 83.3152 29.4741 83.9569 28.2111C84.5986 26.9481 84.1016 25.4243 82.8386 24.7826ZM76.4308 26.1353C75.8372 25.8337 75.1722 25.7977 74.5944 25.9967L67.5535 28.283C66.963 28.4756 66.4664 28.8589 66.1455 29.4904C65.7412 30.2861 65.8179 31.1672 66.2758 31.8924L69.2042 36.606L65.9958 42.921L68.2692 44.076L72.4402 35.8665L70.6572 32.3387L75.0953 30.8594L75.6761 35.127L80.9807 37.8221L82.1358 35.5487L78.0941 33.4953L77.7422 28.1204C77.6968 27.3028 77.1886 26.5203 76.4308 26.1353V26.1353ZM74.1055 23.2059L65.2645 18.7141C64.5698 18.3612 64.2902 17.504 64.6431 16.8094C64.9961 16.1147 65.8532 15.8351 66.5478 16.1881L78.9127 22.4702C78.4292 22.7649 77.9771 23.1231 77.6068 23.5705C76.5077 23.0439 75.2794 22.9283 74.1055 23.2059V23.2059ZM62.0153 31.3645C58.5294 29.5934 54.2629 30.9852 52.4918 34.4711C50.7208 37.957 52.1125 42.2235 55.5984 43.9946C59.0843 45.7656 63.3508 44.3739 65.1219 40.888C66.8929 37.4021 65.5012 33.1356 62.0153 31.3645ZM56.5609 42.1C54.1233 40.8616 53.1479 37.8712 54.3863 35.4336C55.6248 32.996 58.6151 32.0206 61.0527 33.259C63.4903 34.4975 64.4658 37.4878 63.2274 39.9254C61.9889 42.363 58.9985 43.3385 56.5609 42.1ZM79.6973 40.3481C76.2115 38.5771 71.9449 39.9688 70.1739 43.4547C68.4028 46.9406 69.7946 51.2071 73.2805 52.9782C76.7664 54.7492 81.0329 53.3575 82.8039 49.8716C84.575 46.3857 83.1832 42.1192 79.6973 40.3481ZM74.243 51.0837C71.8054 49.8452 70.8299 46.8548 72.0684 44.4172C73.3068 41.9797 76.2972 41.0042 78.7348 42.2426C81.1724 43.4811 82.1479 46.4715 80.9094 48.9091C79.671 51.3467 76.6806 52.3221 74.243 51.0837ZM63.0611 30.3068L57.6049 27.5347C56.9078 27.1805 56.6307 26.3247 56.9836 25.6301C57.3366 24.9354 58.1911 24.6545 58.8883 25.0087L64.0035 27.6076C63.8756 27.7968 63.7286 27.9923 63.6195 28.207C63.2794 28.8764 63.1037 29.5975 63.0611 30.3068ZM66.4867 25.6912L61.4347 23.1244C60.7401 22.7715 60.4605 21.9144 60.8134 21.2197C61.1663 20.5251 62.0234 20.2455 62.7181 20.5984L70.2582 24.4293L66.6838 25.5847C66.6076 25.6096 66.5124 25.6406 66.4867 25.6912Z" fill="black"/>
</g>
<path d="M57.552 67.68C56.1713 65.1367 54.173 63.211 51.557 61.903C49.0137 60.5223 45.998 59.832 42.51 59.832C36.4787 59.832 31.6463 61.8303 28.013 65.827C24.3797 69.751 22.563 75.0193 22.563 81.632C22.563 88.6807 24.4523 94.2033 28.231 98.2C32.0823 102.124 37.3507 104.086 44.036 104.086C48.614 104.086 52.4653 102.923 55.59 100.598C58.7873 98.2727 61.1127 94.93 62.566 90.57H38.913V76.836H79.461V94.167C78.0803 98.8177 75.7187 103.141 72.376 107.138C69.106 111.135 64.9277 114.368 59.841 116.839C54.7543 119.31 49.0137 120.545 42.619 120.545C35.0617 120.545 28.3037 118.91 22.345 115.64C16.459 112.297 11.8447 107.683 8.502 101.797C5.232 95.911 3.597 89.1893 3.597 81.632C3.597 74.0747 5.232 67.353 8.502 61.467C11.8447 55.5083 16.459 50.894 22.345 47.624C28.231 44.2813 34.9527 42.61 42.51 42.61C51.666 42.61 59.3687 44.8263 65.618 49.259C71.94 53.6917 76.1183 59.832 78.153 67.68H57.552ZM140.579 67.68C139.199 65.1367 137.2 63.211 134.584 61.903C132.041 60.5223 129.025 59.832 125.537 59.832C119.506 59.832 114.674 61.8303 111.04 65.827C107.407 69.751 105.59 75.0193 105.59 81.632C105.59 88.6807 107.48 94.2033 111.258 98.2C115.11 102.124 120.378 104.086 127.063 104.086C131.641 104.086 135.493 102.923 138.617 100.598C141.815 98.2727 144.14 94.93 145.593 90.57H121.94V76.836H162.488V94.167C161.108 98.8177 158.746 103.141 155.403 107.138C152.133 111.135 147.955 114.368 142.868 116.839C137.782 119.31 132.041 120.545 125.646 120.545C118.089 120.545 111.331 118.91 105.372 115.64C99.4863 112.297 94.872 107.683 91.5293 101.797C88.2593 95.911 86.6243 89.1893 86.6243 81.632C86.6243 74.0747 88.2593 67.353 91.5293 61.467C94.872 55.5083 99.4863 50.894 105.372 47.624C111.258 44.2813 117.98 42.61 125.537 42.61C134.693 42.61 142.396 44.8263 148.645 49.259C154.967 53.6917 159.146 59.832 161.18 67.68H140.579ZM62.5979 139.152H65.7339V141H60.2039V131.172H62.5979V139.152ZM70.4318 141.112C69.6665 141.112 68.9758 140.949 68.3598 140.622C67.7531 140.295 67.2725 139.829 66.9178 139.222C66.5725 138.615 66.3998 137.906 66.3998 137.094C66.3998 136.291 66.5771 135.587 66.9318 134.98C67.2865 134.364 67.7718 133.893 68.3878 133.566C69.0038 133.239 69.6945 133.076 70.4598 133.076C71.2251 133.076 71.9158 133.239 72.5318 133.566C73.1478 133.893 73.6331 134.364 73.9878 134.98C74.3425 135.587 74.5198 136.291 74.5198 137.094C74.5198 137.897 74.3378 138.606 73.9738 139.222C73.6191 139.829 73.1291 140.295 72.5038 140.622C71.8878 140.949 71.1971 141.112 70.4318 141.112ZM70.4318 139.04C70.8891 139.04 71.2765 138.872 71.5938 138.536C71.9205 138.2 72.0838 137.719 72.0838 137.094C72.0838 136.469 71.9251 135.988 71.6078 135.652C71.2998 135.316 70.9171 135.148 70.4598 135.148C69.9931 135.148 69.6058 135.316 69.2978 135.652C68.9898 135.979 68.8358 136.459 68.8358 137.094C68.8358 137.719 68.9851 138.2 69.2838 138.536C69.5918 138.872 69.9745 139.04 70.4318 139.04ZM78.7579 133.076C79.3085 133.076 79.7892 133.188 80.1999 133.412C80.6199 133.636 80.9419 133.93 81.1659 134.294V133.188H83.5599V140.986C83.5599 141.705 83.4152 142.353 83.1259 142.932C82.8459 143.52 82.4119 143.987 81.8239 144.332C81.2452 144.677 80.5219 144.85 79.6539 144.85C78.4965 144.85 77.5585 144.575 76.8399 144.024C76.1212 143.483 75.7105 142.745 75.6079 141.812H77.9739C78.0485 142.111 78.2259 142.344 78.5059 142.512C78.7859 142.689 79.1312 142.778 79.5419 142.778C80.0365 142.778 80.4285 142.633 80.7179 142.344C81.0165 142.064 81.1659 141.611 81.1659 140.986V139.88C80.9325 140.244 80.6105 140.543 80.1999 140.776C79.7892 141 79.3085 141.112 78.7579 141.112C78.1139 141.112 77.5305 140.949 77.0079 140.622C76.4852 140.286 76.0699 139.815 75.7619 139.208C75.4632 138.592 75.3139 137.883 75.3139 137.08C75.3139 136.277 75.4632 135.573 75.7619 134.966C76.0699 134.359 76.4852 133.893 77.0079 133.566C77.5305 133.239 78.1139 133.076 78.7579 133.076ZM81.1659 137.094C81.1659 136.497 80.9979 136.025 80.6619 135.68C80.3352 135.335 79.9339 135.162 79.4579 135.162C78.9819 135.162 78.5759 135.335 78.2399 135.68C77.9132 136.016 77.7499 136.483 77.7499 137.08C77.7499 137.677 77.9132 138.153 78.2399 138.508C78.5759 138.853 78.9819 139.026 79.4579 139.026C79.9339 139.026 80.3352 138.853 80.6619 138.508C80.9979 138.163 81.1659 137.691 81.1659 137.094ZM86.4958 132.376C86.0758 132.376 85.7305 132.255 85.4598 132.012C85.1985 131.76 85.0678 131.452 85.0678 131.088C85.0678 130.715 85.1985 130.407 85.4598 130.164C85.7305 129.912 86.0758 129.786 86.4958 129.786C86.9065 129.786 87.2425 129.912 87.5038 130.164C87.7745 130.407 87.9098 130.715 87.9098 131.088C87.9098 131.452 87.7745 131.76 87.5038 132.012C87.2425 132.255 86.9065 132.376 86.4958 132.376ZM87.6858 133.188V141H85.2918V133.188H87.6858ZM92.5987 141.112C91.9174 141.112 91.3107 140.995 90.7787 140.762C90.2467 140.529 89.8267 140.211 89.5187 139.81C89.2107 139.399 89.0381 138.942 89.0007 138.438H91.3667C91.3947 138.709 91.5207 138.928 91.7447 139.096C91.9687 139.264 92.2441 139.348 92.5707 139.348C92.8694 139.348 93.0981 139.292 93.2567 139.18C93.4247 139.059 93.5087 138.905 93.5087 138.718C93.5087 138.494 93.3921 138.331 93.1587 138.228C92.9254 138.116 92.5474 137.995 92.0247 137.864C91.4647 137.733 90.9981 137.598 90.6247 137.458C90.2514 137.309 89.9294 137.08 89.6587 136.772C89.3881 136.455 89.2527 136.03 89.2527 135.498C89.2527 135.05 89.3741 134.644 89.6167 134.28C89.8687 133.907 90.2327 133.613 90.7087 133.398C91.1941 133.183 91.7681 133.076 92.4307 133.076C93.4107 133.076 94.1807 133.319 94.7407 133.804C95.3101 134.289 95.6367 134.933 95.7207 135.736H93.5087C93.4714 135.465 93.3501 135.251 93.1447 135.092C92.9487 134.933 92.6874 134.854 92.3607 134.854C92.0807 134.854 91.8661 134.91 91.7167 135.022C91.5674 135.125 91.4927 135.269 91.4927 135.456C91.4927 135.68 91.6094 135.848 91.8427 135.96C92.0854 136.072 92.4587 136.184 92.9627 136.296C93.5414 136.445 94.0127 136.595 94.3767 136.744C94.7407 136.884 95.0581 137.117 95.3287 137.444C95.6087 137.761 95.7534 138.191 95.7627 138.732C95.7627 139.189 95.6321 139.6 95.3707 139.964C95.1187 140.319 94.7501 140.599 94.2647 140.804C93.7887 141.009 93.2334 141.112 92.5987 141.112ZM101.581 138.97V141H100.363C99.4954 141 98.8187 140.79 98.3334 140.37C97.848 139.941 97.6054 139.245 97.6054 138.284V135.176H96.6534V133.188H97.6054V131.284H99.9994V133.188H101.567V135.176H99.9994V138.312C99.9994 138.545 100.055 138.713 100.167 138.816C100.279 138.919 100.466 138.97 100.727 138.97H101.581ZM104.119 132.376C103.699 132.376 103.354 132.255 103.083 132.012C102.822 131.76 102.691 131.452 102.691 131.088C102.691 130.715 102.822 130.407 103.083 130.164C103.354 129.912 103.699 129.786 104.119 129.786C104.53 129.786 104.866 129.912 105.127 130.164C105.398 130.407 105.533 130.715 105.533 131.088C105.533 131.452 105.398 131.76 105.127 132.012C104.866 132.255 104.53 132.376 104.119 132.376ZM105.309 133.188V141H102.915V133.188H105.309ZM106.568 137.094C106.568 136.282 106.731 135.573 107.058 134.966C107.394 134.359 107.856 133.893 108.444 133.566C109.041 133.239 109.722 133.076 110.488 133.076C111.468 133.076 112.284 133.333 112.938 133.846C113.6 134.359 114.034 135.083 114.24 136.016H111.692C111.477 135.419 111.062 135.12 110.446 135.12C110.007 135.12 109.657 135.293 109.396 135.638C109.134 135.974 109.004 136.459 109.004 137.094C109.004 137.729 109.134 138.219 109.396 138.564C109.657 138.9 110.007 139.068 110.446 139.068C111.062 139.068 111.477 138.769 111.692 138.172H114.24C114.034 139.087 113.6 139.805 112.938 140.328C112.275 140.851 111.458 141.112 110.488 141.112C109.722 141.112 109.041 140.949 108.444 140.622C107.856 140.295 107.394 139.829 107.058 139.222C106.731 138.615 106.568 137.906 106.568 137.094ZM118.698 141.112C118.017 141.112 117.41 140.995 116.878 140.762C116.346 140.529 115.926 140.211 115.618 139.81C115.31 139.399 115.138 138.942 115.1 138.438H117.466C117.494 138.709 117.62 138.928 117.844 139.096C118.068 139.264 118.344 139.348 118.67 139.348C118.969 139.348 119.198 139.292 119.356 139.18C119.524 139.059 119.608 138.905 119.608 138.718C119.608 138.494 119.492 138.331 119.258 138.228C119.025 138.116 118.647 137.995 118.124 137.864C117.564 137.733 117.098 137.598 116.724 137.458C116.351 137.309 116.029 137.08 115.758 136.772C115.488 136.455 115.352 136.03 115.352 135.498C115.352 135.05 115.474 134.644 115.716 134.28C115.968 133.907 116.332 133.613 116.808 133.398C117.294 133.183 117.868 133.076 118.53 133.076C119.51 133.076 120.28 133.319 120.84 133.804C121.41 134.289 121.736 134.933 121.82 135.736H119.608C119.571 135.465 119.45 135.251 119.244 135.092C119.048 134.933 118.787 134.854 118.46 134.854C118.18 134.854 117.966 134.91 117.816 135.022C117.667 135.125 117.592 135.269 117.592 135.456C117.592 135.68 117.709 135.848 117.942 135.96C118.185 136.072 118.558 136.184 119.062 136.296C119.641 136.445 120.112 136.595 120.476 136.744C120.84 136.884 121.158 137.117 121.428 137.444C121.708 137.761 121.853 138.191 121.862 138.732C121.862 139.189 121.732 139.6 121.47 139.964C121.218 140.319 120.85 140.599 120.364 140.804C119.888 141.009 119.333 141.112 118.698 141.112Z" fill="#B50000"/>
<defs>
<clipPath id="clip0_1_8">
<rect width="34" height="34" fill="white" transform="translate(63.4005 13) rotate(26.9335)"/>
</clipPath>
</defs>
</svg>
