<svg width="288" height="110" viewBox="0 0 288 110" fill="none" xmlns="http://www.w3.org/2000/svg">
<g clip-path="url(#clip0_1_7)">
<path d="M154.667 26.7C153.25 26.7 152.117 27.8333 152.117 29.25C152.117 30.6667 153.25 31.8 154.667 31.8C156.083 31.8 157.217 30.6667 157.217 29.25C157.217 27.8333 156.083 26.7 154.667 26.7ZM149.567 30.8083C148.901 30.8083 148.292 31.0775 147.867 31.5167L142.625 36.7442C142.186 37.1833 141.917 37.75 141.917 38.4583C141.917 39.3508 142.384 40.1017 143.121 40.5408L147.867 43.4167V50.5H150.417V41.2917L147.229 38.9542L150.516 35.625L152.967 39.1667H158.917V36.6167H154.383L151.635 31.9842C151.224 31.2758 150.417 30.8083 149.567 30.8083V30.8083ZM146.167 29.25H136.25C135.471 29.25 134.833 28.6125 134.833 27.8333C134.833 27.0542 135.471 26.4167 136.25 26.4167H150.119C149.822 26.8983 149.581 27.4225 149.453 27.9892C148.235 28.0175 147.087 28.4708 146.167 29.25V29.25ZM139.083 42C135.173 42 132 45.1733 132 49.0833C132 52.9933 135.173 56.1667 139.083 56.1667C142.993 56.1667 146.167 52.9933 146.167 49.0833C146.167 45.1733 142.993 42 139.083 42ZM139.083 54.0417C136.349 54.0417 134.125 51.8175 134.125 49.0833C134.125 46.3492 136.349 44.125 139.083 44.125C141.817 44.125 144.042 46.3492 144.042 49.0833C144.042 51.8175 141.817 54.0417 139.083 54.0417ZM158.917 42C155.007 42 151.833 45.1733 151.833 49.0833C151.833 52.9933 155.007 56.1667 158.917 56.1667C162.827 56.1667 166 52.9933 166 49.0833C166 45.1733 162.827 42 158.917 42ZM158.917 54.0417C156.182 54.0417 153.958 51.8175 153.958 49.0833C153.958 46.3492 156.182 44.125 158.917 44.125C161.651 44.125 163.875 46.3492 163.875 49.0833C163.875 51.8175 161.651 54.0417 158.917 54.0417ZM139.537 40.5833H133.417C132.635 40.5833 132 39.9458 132 39.1667C132 38.3875 132.635 37.75 133.417 37.75H139.154C139.126 37.9767 139.083 38.2175 139.083 38.4583C139.083 39.2092 139.253 39.9317 139.537 40.5833ZM140.5 34.9167H134.833C134.054 34.9167 133.417 34.2792 133.417 33.5C133.417 32.7208 134.054 32.0833 134.833 32.0833H143.291L140.627 34.7325C140.571 34.7892 140.5 34.86 140.5 34.9167Z" fill="black"/>
</g>
<path d="M38.544 45.96C37.6193 44.2567 36.281 42.967 34.529 42.091C32.8257 41.1663 30.806 40.704 28.47 40.704C24.4307 40.704 21.1943 42.0423 18.761 44.719C16.3277 47.347 15.111 50.8753 15.111 55.304C15.111 60.0247 16.3763 63.7233 18.907 66.4C21.4863 69.028 25.0147 70.342 29.492 70.342C32.558 70.342 35.1373 69.5633 37.23 68.006C39.3713 66.4487 40.9287 64.21 41.902 61.29H26.061V52.092H53.217V63.699C52.2923 66.8137 50.7107 69.7093 48.472 72.386C46.282 75.0627 43.4837 77.2283 40.077 78.883C36.6703 80.5377 32.8257 81.365 28.543 81.365C23.4817 81.365 18.9557 80.27 14.965 78.08C11.023 75.8413 7.93267 72.751 5.694 68.809C3.504 64.867 2.409 60.3653 2.409 55.304C2.409 50.2427 3.504 45.741 5.694 41.799C7.93267 37.8083 11.023 34.718 14.965 32.528C18.907 30.2893 23.4087 29.17 28.47 29.17C34.602 29.17 39.7607 30.6543 43.946 33.623C48.18 36.5917 50.9783 40.704 52.341 45.96H38.544ZM94.1495 45.96C93.2248 44.2567 91.8865 42.967 90.1345 42.091C88.4311 41.1663 86.4115 40.704 84.0755 40.704C80.0361 40.704 76.7998 42.0423 74.3665 44.719C71.9331 47.347 70.7165 50.8753 70.7165 55.304C70.7165 60.0247 71.9818 63.7233 74.5125 66.4C77.0918 69.028 80.6201 70.342 85.0975 70.342C88.1635 70.342 90.7428 69.5633 92.8355 68.006C94.9768 66.4487 96.5341 64.21 97.5075 61.29H81.6665V52.092H108.822V63.699C107.898 66.8137 106.316 69.7093 104.077 72.386C101.887 75.0627 99.0891 77.2283 95.6825 78.883C92.2758 80.5377 88.4311 81.365 84.1485 81.365C79.0871 81.365 74.5611 80.27 70.5705 78.08C66.6285 75.8413 63.5381 72.751 61.2995 68.809C59.1095 64.867 58.0145 60.3653 58.0145 55.304C58.0145 50.2427 59.1095 45.741 61.2995 41.799C63.5381 37.8083 66.6285 34.718 70.5705 32.528C74.5125 30.2893 79.0141 29.17 84.0755 29.17C90.2075 29.17 95.3661 30.6543 99.5515 33.623C103.785 36.5917 106.584 40.704 107.946 45.96H94.1495ZM129.368 76.116H137.656V81H123.041V55.026H129.368V76.116ZM150.072 81.296C148.049 81.296 146.224 80.8643 144.596 80.001C142.993 79.1377 141.722 77.9043 140.785 76.301C139.872 74.6977 139.416 72.823 139.416 70.677C139.416 68.5557 139.885 66.6933 140.822 65.09C141.759 63.462 143.042 62.2163 144.67 61.353C146.298 60.4897 148.123 60.058 150.146 60.058C152.169 60.058 153.994 60.4897 155.622 61.353C157.25 62.2163 158.533 63.462 159.47 65.09C160.407 66.6933 160.876 68.5557 160.876 70.677C160.876 72.7983 160.395 74.673 159.433 76.301C158.496 77.9043 157.201 79.1377 155.548 80.001C153.92 80.8643 152.095 81.296 150.072 81.296ZM150.072 75.82C151.281 75.82 152.304 75.376 153.143 74.488C154.006 73.6 154.438 72.3297 154.438 70.677C154.438 69.0243 154.019 67.754 153.18 66.866C152.366 65.978 151.355 65.534 150.146 65.534C148.913 65.534 147.889 65.978 147.075 66.866C146.261 67.7293 145.854 68.9997 145.854 70.677C145.854 72.3297 146.249 73.6 147.038 74.488C147.852 75.376 148.863 75.82 150.072 75.82ZM172.076 60.058C173.532 60.058 174.802 60.354 175.887 60.946C176.997 61.538 177.848 62.315 178.44 63.277V60.354H184.767V80.963C184.767 82.8623 184.385 84.5767 183.62 86.106C182.88 87.66 181.733 88.8933 180.179 89.806C178.65 90.7187 176.738 91.175 174.444 91.175C171.386 91.175 168.907 90.4473 167.007 88.992C165.108 87.5613 164.023 85.6127 163.751 83.146H170.004C170.202 83.9353 170.67 84.552 171.41 84.996C172.15 85.4647 173.063 85.699 174.148 85.699C175.456 85.699 176.492 85.3167 177.256 84.552C178.046 83.812 178.44 82.6157 178.44 80.963V78.04C177.824 79.002 176.973 79.7913 175.887 80.408C174.802 81 173.532 81.296 172.076 81.296C170.374 81.296 168.833 80.8643 167.451 80.001C166.07 79.113 164.972 77.8673 164.158 76.264C163.369 74.636 162.974 72.7613 162.974 70.64C162.974 68.5187 163.369 66.6563 164.158 65.053C164.972 63.4497 166.07 62.2163 167.451 61.353C168.833 60.4897 170.374 60.058 172.076 60.058ZM178.44 70.677C178.44 69.0983 177.996 67.8527 177.108 66.94C176.245 66.0273 175.184 65.571 173.926 65.571C172.668 65.571 171.595 66.0273 170.707 66.94C169.844 67.828 169.412 69.0613 169.412 70.64C169.412 72.2187 169.844 73.4767 170.707 74.414C171.595 75.3267 172.668 75.783 173.926 75.783C175.184 75.783 176.245 75.3267 177.108 74.414C177.996 73.5013 178.44 72.2557 178.44 70.677ZM192.527 58.208C191.417 58.208 190.504 57.8873 189.789 57.246C189.098 56.58 188.753 55.766 188.753 54.804C188.753 53.8173 189.098 53.0033 189.789 52.362C190.504 51.696 191.417 51.363 192.527 51.363C193.612 51.363 194.5 51.696 195.191 52.362C195.906 53.0033 196.264 53.8173 196.264 54.804C196.264 55.766 195.906 56.58 195.191 57.246C194.5 57.8873 193.612 58.208 192.527 58.208ZM195.672 60.354V81H189.345V60.354H195.672ZM208.656 81.296C206.855 81.296 205.252 80.9877 203.846 80.371C202.44 79.7543 201.33 78.9157 200.516 77.855C199.702 76.7697 199.246 75.561 199.147 74.229H205.4C205.474 74.9443 205.807 75.524 206.399 75.968C206.991 76.412 207.719 76.634 208.582 76.634C209.371 76.634 209.976 76.486 210.395 76.19C210.839 75.8693 211.061 75.4623 211.061 74.969C211.061 74.377 210.753 73.9453 210.136 73.674C209.519 73.378 208.52 73.0573 207.139 72.712C205.659 72.3667 204.426 72.009 203.439 71.639C202.452 71.2443 201.601 70.64 200.886 69.826C200.171 68.9873 199.813 67.865 199.813 66.459C199.813 65.275 200.134 64.202 200.775 63.24C201.441 62.2533 202.403 61.4763 203.661 60.909C204.944 60.3417 206.461 60.058 208.212 60.058C210.802 60.058 212.837 60.6993 214.317 61.982C215.822 63.2647 216.685 64.9667 216.907 67.088H211.061C210.962 66.3727 210.642 65.8053 210.099 65.386C209.581 64.9667 208.89 64.757 208.027 64.757C207.287 64.757 206.72 64.905 206.325 65.201C205.93 65.4723 205.733 65.8547 205.733 66.348C205.733 66.94 206.041 67.384 206.658 67.68C207.299 67.976 208.286 68.272 209.618 68.568C211.147 68.9627 212.393 69.3573 213.355 69.752C214.317 70.122 215.156 70.7387 215.871 71.602C216.611 72.4407 216.993 73.5753 217.018 75.006C217.018 76.2147 216.673 77.3 215.982 78.262C215.316 79.1993 214.342 79.9393 213.059 80.482C211.801 81.0247 210.333 81.296 208.656 81.296ZM232.396 75.635V81H229.177C226.883 81 225.094 80.445 223.812 79.335C222.529 78.2003 221.888 76.3627 221.888 73.822V65.608H219.372V60.354H221.888V55.322H228.215V60.354H232.359V65.608H228.215V73.896C228.215 74.5127 228.363 74.9567 228.659 75.228C228.955 75.4993 229.448 75.635 230.139 75.635H232.396ZM239.102 58.208C237.992 58.208 237.079 57.8873 236.364 57.246C235.673 56.58 235.328 55.766 235.328 54.804C235.328 53.8173 235.673 53.0033 236.364 52.362C237.079 51.696 237.992 51.363 239.102 51.363C240.187 51.363 241.075 51.696 241.766 52.362C242.481 53.0033 242.839 53.8173 242.839 54.804C242.839 55.766 242.481 56.58 241.766 57.246C241.075 57.8873 240.187 58.208 239.102 58.208ZM242.247 60.354V81H235.92V60.354H242.247ZM245.574 70.677C245.574 68.531 246.006 66.6563 246.869 65.053C247.757 63.4497 248.978 62.2163 250.532 61.353C252.111 60.4897 253.911 60.058 255.934 60.058C258.524 60.058 260.682 60.7363 262.409 62.093C264.16 63.4497 265.307 65.3613 265.85 67.828H259.116C258.549 66.2493 257.451 65.46 255.823 65.46C254.664 65.46 253.739 65.9163 253.048 66.829C252.357 67.717 252.012 68.9997 252.012 70.677C252.012 72.3543 252.357 73.6493 253.048 74.562C253.739 75.45 254.664 75.894 255.823 75.894C257.451 75.894 258.549 75.1047 259.116 73.526H265.85C265.307 75.9433 264.16 77.8427 262.409 79.224C260.658 80.6053 258.499 81.296 255.934 81.296C253.911 81.296 252.111 80.8643 250.532 80.001C248.978 79.1377 247.757 77.9043 246.869 76.301C246.006 74.6977 245.574 72.823 245.574 70.677ZM277.633 81.296C275.833 81.296 274.229 80.9877 272.823 80.371C271.417 79.7543 270.307 78.9157 269.493 77.855C268.679 76.7697 268.223 75.561 268.124 74.229H274.377C274.451 74.9443 274.784 75.524 275.376 75.968C275.968 76.412 276.696 76.634 277.559 76.634C278.349 76.634 278.953 76.486 279.372 76.19C279.816 75.8693 280.038 75.4623 280.038 74.969C280.038 74.377 279.73 73.9453 279.113 73.674C278.497 73.378 277.498 73.0573 276.116 72.712C274.636 72.3667 273.403 72.009 272.416 71.639C271.43 71.2443 270.579 70.64 269.863 69.826C269.148 68.9873 268.79 67.865 268.79 66.459C268.79 65.275 269.111 64.202 269.752 63.24C270.418 62.2533 271.38 61.4763 272.638 60.909C273.921 60.3417 275.438 60.058 277.189 60.058C279.779 60.058 281.814 60.6993 283.294 61.982C284.799 63.2647 285.662 64.9667 285.884 67.088H280.038C279.94 66.3727 279.619 65.8053 279.076 65.386C278.558 64.9667 277.868 64.757 277.004 64.757C276.264 64.757 275.697 64.905 275.302 65.201C274.908 65.4723 274.71 65.8547 274.71 66.348C274.71 66.94 275.019 67.384 275.635 67.68C276.277 67.976 277.263 68.272 278.595 68.568C280.125 68.9627 281.37 69.3573 282.332 69.752C283.294 70.122 284.133 70.7387 284.848 71.602C285.588 72.4407 285.971 73.5753 285.995 75.006C285.995 76.2147 285.65 77.3 284.959 78.262C284.293 79.1993 283.319 79.9393 282.036 80.482C280.778 81.0247 279.311 81.296 277.633 81.296Z" fill="#B50000"/>
<defs>
<clipPath id="clip0_1_7">
<rect width="34" height="34" fill="white" transform="translate(132 25)"/>
</clipPath>
</defs>
</svg>
